<svg version="1.1" id="Layer_1" xmlns="http://www.w3.org/2000/svg" xmlns:xlink="http://www.w3.org/1999/xlink" x="0px" y="0px"
	 width="100%" viewBox="0 0 1649 1649" enable-background="new 0 0 1649 1649" xml:space="preserve">
<path fill="#000000" opacity="1.000000" stroke="none" 
	d="
M873.000000,1650.000000 
	C582.000061,1650.000000 291.500183,1650.000000 1.000195,1650.000000 
	C1.000130,1100.333618 1.000130,550.667175 1.000065,1.000564 
	C550.666260,1.000376 1100.332520,1.000376 1649.999023,1.000188 
	C1649.999390,550.666077 1649.999390,1100.332153 1649.999756,1649.999146 
	C1391.166626,1650.000000 1132.333374,1650.000000 873.000000,1650.000000 
M1213.288940,326.803772 
	C1210.525879,326.258179 1207.762695,325.712616 1204.226440,325.023590 
	C1200.944824,324.316589 1197.573730,323.883453 1194.400635,322.844879 
	C1188.040161,320.763000 1181.788330,318.348663 1175.487427,316.083862 
	C1175.352417,316.035309 1175.163940,316.135651 1174.360840,316.022614 
	C1173.926147,315.982117 1173.491333,315.941650 1173.030029,315.967621 
	C1173.030029,315.967621 1173.096680,315.941467 1172.995483,315.210175 
	C1171.849976,314.442932 1170.728638,313.636169 1169.554932,312.914764 
	C1161.392578,307.897736 1153.219360,302.898376 1144.712524,297.265045 
	C1142.083252,295.871216 1139.453857,294.477356 1136.252930,292.780487 
	C1135.901733,292.037292 1135.528931,290.099457 1134.366333,288.986816 
	C1129.357300,284.192902 1123.015747,280.957520 1119.514038,274.346588 
	C1118.006226,271.499939 1114.238770,270.242310 1112.651611,266.507874 
	C1110.788940,262.125488 1106.498535,258.814209 1104.383057,254.489594 
	C1102.057007,249.734436 1099.808472,247.601822 1094.280884,251.256729 
	C1089.171021,254.135330 1084.061157,257.013947 1078.294800,259.993591 
	C1077.530029,260.384583 1076.765137,260.775574 1075.258667,261.037903 
	C1070.489990,262.988708 1065.721436,264.939545 1060.144897,266.983887 
	C1056.430054,268.044952 1052.715088,269.106018 1048.191040,270.025757 
	C1045.447632,270.644501 1042.704224,271.263245 1039.125000,271.982849 
	C1036.083374,272.377563 1033.041870,272.772247 1029.125977,273.025146 
	C1026.084229,273.405609 1023.042419,273.786041 1019.095154,274.024750 
	C1011.063538,273.405518 1003.031921,272.786316 994.170837,272.024719 
	C990.113831,271.405426 986.056763,270.786102 981.309021,269.820526 
	C980.729980,269.550354 980.177002,269.168762 979.568054,269.026062 
	C955.987244,263.498962 935.867188,251.593094 918.090332,235.476654 
	C915.558105,233.180954 914.291992,234.337585 912.350830,236.083878 
	C900.826355,246.451233 887.462280,253.871719 873.331116,260.008789 
	C861.992920,264.932892 850.018127,266.741882 837.801880,268.202148 
	C824.834961,269.752075 812.276367,268.366486 799.581726,266.324402 
	C784.851807,263.954865 771.721313,257.837830 758.918457,250.521606 
	C742.250305,240.996460 728.313354,228.262527 716.398865,213.534973 
	C703.115295,197.115158 693.098633,178.658859 687.123779,158.243530 
	C686.075989,154.663406 684.655029,153.634964 680.762939,154.529129 
	C668.719849,157.295868 656.584106,159.683228 644.437439,161.969177 
	C625.882568,165.461151 607.248718,168.541183 588.719910,172.162354 
	C555.684875,178.618576 522.729126,185.480515 489.692108,191.926102 
	C457.909180,198.126999 426.053497,203.953873 394.251465,210.058182 
	C359.904358,216.651031 325.577118,223.347565 291.251251,230.050461 
	C264.112183,235.349976 236.987717,240.724289 209.857986,246.071579 
	C191.347427,249.719986 172.846207,253.416412 154.326782,257.019196 
	C143.363007,259.152100 143.113190,259.130249 145.055435,270.315704 
	C147.727249,285.702728 150.724838,301.034912 153.724838,316.362823 
	C157.067032,333.439240 160.662613,350.466187 163.972290,367.548737 
	C166.882538,382.569672 169.427643,397.661530 172.355881,412.678802 
	C176.121567,431.990997 180.226013,451.237366 183.966476,470.554291 
	C187.494217,488.772552 190.641724,507.064240 194.133667,525.289673 
	C198.326096,547.171204 202.674133,569.023193 207.015213,590.875916 
	C210.278351,607.302307 213.655975,623.705994 216.947189,640.126831 
	C219.984085,655.278809 223.063492,670.423096 225.961182,685.601868 
	C229.440704,703.828308 232.634476,722.109680 236.163330,740.326294 
	C239.286240,756.447388 242.768921,772.498535 245.965408,788.605774 
	C249.669754,807.271973 253.233643,825.966064 256.861084,844.647583 
	C259.900269,860.299255 262.959412,875.947083 265.979950,891.602356 
	C269.246735,908.533813 272.409546,925.485657 275.747131,942.403015 
	C278.737000,957.557678 282.012177,972.656311 284.961884,987.818542 
	C288.286560,1004.908142 291.307556,1022.056702 294.610535,1039.150635 
	C297.634308,1054.799805 300.961761,1070.390625 303.963837,1086.043823 
	C306.876556,1101.231201 309.418274,1116.489990 312.352203,1131.673096 
	C316.455933,1152.909912 320.794128,1174.101196 324.990662,1195.320068 
	C328.303986,1212.073242 331.535217,1228.842773 334.839447,1245.597778 
	C337.860596,1260.917480 340.969086,1276.220215 343.969574,1291.543945 
	C347.625946,1310.217163 351.187408,1328.908813 354.831787,1347.584351 
	C357.854187,1363.072632 361.023224,1378.532593 363.969055,1394.035278 
	C366.856079,1409.227905 369.415497,1424.483154 372.347992,1439.666748 
	C376.789246,1462.662354 381.453674,1485.614746 385.976624,1508.594849 
	C389.557678,1526.789185 393.087769,1544.993652 396.604401,1563.200562 
	C399.103394,1576.139038 401.571686,1589.083618 403.998871,1602.035645 
	C406.067963,1613.076538 408.042084,1624.135254 410.094147,1635.179321 
	C410.749847,1638.708374 412.552063,1640.816772 416.525421,1639.978638 
	C425.432190,1638.099854 434.327301,1636.162231 443.252625,1634.375732 
	C462.388977,1630.544922 481.538513,1626.779419 500.688202,1623.015625 
	C518.881836,1619.439575 537.069275,1615.829956 555.284302,1612.365845 
	C570.475830,1609.476562 585.721924,1606.873291 600.908264,1603.958008 
	C610.638733,1602.090088 620.304626,1599.885986 630.815857,1597.972656 
	C635.210388,1596.926147 639.604919,1595.879761 644.831421,1594.974609 
	C651.887451,1593.594360 658.943542,1592.213989 666.798340,1590.952881 
	C670.545410,1590.007568 674.292542,1589.062256 678.880188,1588.016724 
	C680.629944,1587.679565 682.376221,1587.323120 684.130005,1587.008423 
	C699.655212,1584.222290 715.234192,1581.696655 730.672974,1578.494629 
	C734.795288,1577.639771 738.989502,1577.104980 743.175354,1574.604736 
	C747.536316,1571.999878 754.209717,1573.547852 759.748413,1572.575684 
	C771.893738,1570.443848 783.949585,1567.807617 796.063843,1565.491699 
	C804.690491,1563.842529 813.352783,1562.379639 822.731201,1560.732544 
	C824.500427,1560.193970 826.269714,1559.655518 828.777466,1559.016357 
	C829.518127,1558.955200 830.258789,1558.894043 831.773621,1558.956665 
	C834.182251,1558.248901 836.590881,1557.541016 839.831482,1556.974609 
	C850.809265,1554.862183 861.800354,1552.816162 872.761658,1550.621582 
	C888.157043,1547.538940 903.503479,1544.233765 919.049072,1541.912842 
	C925.100708,1541.009521 931.020020,1539.219604 937.821655,1537.974976 
	C941.214539,1537.261108 944.607361,1536.547241 948.800293,1535.973022 
	C952.351868,1534.942261 955.855469,1533.678467 959.466248,1532.935181 
	C964.952515,1531.805542 970.513184,1531.036743 976.880310,1530.017212 
	C978.303101,1529.816772 979.746460,1529.708862 981.144653,1529.398071 
	C984.773743,1528.590820 988.382874,1527.694214 992.786865,1526.974731 
	C1000.524353,1525.594360 1008.261841,1524.213989 1016.815002,1522.973389 
	C1020.913513,1521.997681 1025.011963,1521.021973 1029.874023,1520.006836 
	C1031.265015,1519.707642 1032.656006,1519.408325 1034.853882,1519.016235 
	C1036.645752,1518.438721 1038.441284,1517.872437 1040.228027,1517.279785 
	C1041.418579,1516.884644 1042.568726,1516.228027 1043.785400,1516.075684 
	C1047.844971,1515.567627 1051.926514,1515.234131 1056.802368,1514.952148 
	C1061.534912,1513.912598 1066.267578,1512.873047 1071.803833,1511.951904 
	C1072.878174,1511.636108 1073.936523,1511.242676 1075.029419,1511.016968 
	C1083.029785,1509.364136 1091.037231,1507.744751 1099.889893,1506.017334 
	C1103.926758,1505.289307 1107.963501,1504.561279 1112.832275,1503.974854 
	C1121.554688,1502.260986 1130.277222,1500.547119 1139.803223,1498.952026 
	C1145.217896,1497.670898 1150.632568,1496.389771 1156.885986,1495.015991 
	C1161.923706,1493.955200 1166.961426,1492.894287 1172.749390,1491.716187 
	C1176.182007,1490.513672 1179.614624,1489.311279 1183.859253,1488.015869 
	C1192.906006,1484.955078 1201.952881,1481.894287 1211.746094,1478.962036 
	C1215.846924,1477.010620 1219.947632,1475.059204 1224.649414,1473.008789 
	C1225.113770,1472.710815 1225.578125,1472.412842 1226.774780,1472.003418 
	C1235.865845,1467.038086 1244.957031,1462.072876 1254.769653,1457.003174 
	C1262.818848,1451.602783 1270.867920,1446.202393 1279.577271,1440.843262 
	C1281.051147,1439.506714 1282.525146,1438.170166 1284.668335,1436.783081 
	C1286.511719,1435.176636 1288.356201,1433.571533 1290.198120,1431.963501 
	C1296.351318,1426.591431 1302.573608,1421.295532 1308.628784,1415.815063 
	C1311.980469,1412.781616 1315.305664,1409.647339 1318.169434,1406.168823 
	C1320.432007,1403.420776 1321.972290,1400.078125 1324.157349,1396.386597 
	C1325.453613,1395.627930 1326.749756,1394.869141 1328.656372,1393.840698 
	C1329.786743,1392.263306 1330.917114,1390.685913 1332.683472,1388.817261 
	C1335.802979,1383.916382 1338.922607,1379.015381 1342.747559,1374.004639 
	C1345.536377,1370.350708 1348.325195,1366.696777 1351.736572,1362.705566 
	C1353.212769,1360.137329 1354.688965,1357.569214 1356.644165,1354.835938 
	C1356.697266,1354.529419 1356.750488,1354.223022 1357.164673,1353.316528 
	C1364.481445,1338.891724 1371.798218,1324.466919 1379.672729,1309.794800 
	C1379.819580,1309.211060 1379.966309,1308.627441 1380.756348,1307.675537 
	C1381.876709,1304.130249 1382.997070,1300.584961 1384.723755,1296.724854 
	C1384.854126,1295.830688 1384.984497,1294.936401 1385.765259,1293.661865 
	C1386.993164,1286.891479 1391.585449,1280.839478 1390.080322,1273.462280 
	C1389.998291,1273.060181 1390.721436,1272.524780 1390.998657,1272.013062 
	C1392.024292,1270.119751 1393.406494,1268.310547 1393.932251,1266.282349 
	C1394.638672,1263.556885 1394.675049,1260.657837 1395.713135,1257.686279 
	C1397.086548,1253.123779 1398.459839,1248.561401 1399.973145,1243.226074 
	C1399.902466,1241.399170 1399.281250,1239.372681 1399.858154,1237.780396 
	C1402.116333,1231.547974 1405.197876,1225.555908 1402.459961,1218.601074 
	C1402.121460,1217.741333 1403.223145,1216.337524 1403.599854,1215.167236 
	C1404.043701,1213.788574 1404.424561,1212.389526 1405.190430,1210.295166 
	C1405.404907,1208.530029 1405.619263,1206.765015 1405.975586,1204.126221 
	C1406.650391,1191.802002 1407.463867,1179.483154 1407.947632,1167.151367 
	C1408.234009,1159.848633 1408.113159,1152.523193 1407.955688,1145.212646 
	C1407.867676,1141.132812 1407.443359,1137.048706 1406.939331,1132.995239 
	C1406.737061,1131.369019 1405.003052,1129.377930 1405.522095,1128.307495 
	C1408.890747,1121.360474 1405.418823,1114.714600 1405.016724,1107.076904 
	C1404.622314,1103.717896 1404.227905,1100.359009 1403.975220,1096.147827 
	C1403.870728,1094.861084 1403.859131,1093.558838 1403.646729,1092.290161 
	C1402.401611,1084.855957 1401.109497,1077.429688 1399.700439,1069.233398 
	C1398.744385,1065.488892 1397.788452,1061.744507 1396.974609,1057.175659 
	C1395.594116,1050.783936 1394.213745,1044.392334 1392.705566,1037.238281 
	C1390.820190,1030.790039 1388.934937,1024.341797 1387.007202,1017.145752 
	C1386.615845,1015.764099 1386.224609,1014.382385 1385.974854,1012.195862 
	C1385.022461,1008.784180 1384.069946,1005.372498 1383.015259,1001.168335 
	C1380.987793,989.539429 1373.794556,979.652100 1371.743896,967.281433 
	C1369.531860,962.171509 1367.319824,957.061523 1365.014893,951.240356 
	C1364.381592,949.812866 1363.748169,948.385315 1363.015747,946.198792 
	C1359.354004,938.526855 1355.770020,930.816040 1351.976318,923.209900 
	C1351.006348,921.265076 1349.372192,919.651489 1348.004761,917.118774 
	C1345.689941,912.714172 1343.375122,908.309631 1341.030640,903.972229 
	C1341.030640,903.972229 1341.097900,903.942932 1341.005249,903.294250 
	C1340.356812,902.497864 1339.708374,901.701477 1339.029297,900.972534 
	C1339.029297,900.972534 1339.096802,900.941772 1339.001221,900.218323 
	C1335.017334,893.776733 1331.033447,887.335144 1326.820679,880.320068 
	C1326.158325,879.546936 1325.495850,878.773865 1324.717773,877.310730 
	C1322.678345,874.565002 1320.799438,871.680847 1318.571045,869.098267 
	C1310.123291,859.308289 1301.562500,849.616028 1292.792725,839.289612 
	C1291.209839,837.822205 1289.626831,836.354797 1287.800293,834.297913 
	C1286.547485,833.160522 1285.294800,832.023132 1283.763306,830.259460 
	C1280.189575,827.801453 1276.615845,825.343445 1272.991089,822.179810 
	C1268.959229,819.130737 1264.921631,816.088989 1260.900024,813.026611 
	C1260.089355,812.409363 1259.361572,811.683838 1258.555054,811.060730 
	C1256.731201,809.651978 1254.882080,808.275940 1252.760254,806.256714 
	C1247.187500,803.132874 1241.614868,800.008972 1235.733521,796.230835 
	C1233.527222,795.473083 1231.321045,794.715332 1228.999390,793.225281 
	C1220.666016,789.539124 1212.332764,785.853027 1203.315918,781.826416 
	C1196.877441,779.606567 1190.438843,777.386658 1183.221069,775.005554 
	C1180.161499,774.298767 1177.101807,773.591980 1173.642334,772.222900 
	C1169.094971,771.204163 1164.547729,770.185425 1159.173340,769.022461 
	C1152.782227,768.070496 1146.391235,767.118469 1139.174927,765.996765 
	C1135.116455,765.386719 1131.057861,764.776672 1126.288696,764.012756 
	C1122.139160,761.985779 1120.532593,758.610962 1121.685913,753.815186 
	C1124.428955,751.731812 1127.141357,749.606750 1129.922974,747.576111 
	C1133.042358,745.298889 1136.224243,743.107361 1140.095825,740.938782 
	C1141.100708,739.974487 1142.105469,739.010254 1143.807007,737.994141 
	C1146.240112,736.012634 1148.673218,734.031189 1151.728516,731.775024 
	C1157.152222,726.794556 1162.575806,721.814087 1168.694336,716.964233 
	C1171.476074,714.348328 1174.257690,711.732422 1177.735352,709.005249 
	C1182.478638,704.067322 1187.371948,699.261169 1191.889893,694.125061 
	C1193.641235,692.133972 1194.544067,689.396545 1195.981445,686.567322 
	C1195.981445,686.567322 1196.042236,686.114807 1196.784058,686.015625 
	C1197.901978,685.462463 1199.479736,685.208618 1200.065430,684.308960 
	C1204.852539,676.955383 1209.454590,669.481323 1214.747070,661.756287 
	C1216.203003,658.851562 1217.658936,655.946899 1219.755127,652.747498 
	C1220.131836,651.953064 1220.508667,651.158691 1221.437378,650.002441 
	C1222.902710,646.334839 1224.368042,642.667236 1225.986938,638.292480 
	C1227.006470,636.231812 1228.026123,634.171143 1229.693970,631.755432 
	C1231.740356,625.836792 1233.786743,619.918152 1236.100952,613.408081 
	C1236.344971,612.856934 1236.588989,612.305725 1237.276489,611.172485 
	C1238.795410,606.447998 1240.314331,601.723572 1241.997437,596.203491 
	C1243.996948,587.019836 1246.464844,577.907532 1247.878906,568.634583 
	C1249.702026,556.679993 1250.690796,544.597656 1252.021973,532.568481 
	C1253.800171,516.497070 1254.959717,500.409912 1252.974976,484.266663 
	C1252.778564,482.668701 1252.004272,481.099335 1252.032715,479.526367 
	C1252.072632,477.306915 1253.494995,474.742462 1252.775513,472.946991 
	C1250.406006,467.034454 1251.729614,460.926666 1250.993286,454.963959 
	C1250.113159,447.835297 1248.536865,440.720642 1248.453125,433.585938 
	C1248.369751,426.475952 1245.070923,420.200256 1245.330322,412.748535 
	C1245.639648,403.867767 1241.983887,394.848907 1240.006348,385.070984 
	C1238.373535,378.697937 1236.740845,372.324890 1235.014526,365.185333 
	C1234.381226,363.109497 1233.747925,361.033661 1233.015137,358.164276 
	C1231.954468,354.776581 1230.893677,351.388885 1229.956543,347.227325 
	C1228.915405,343.818512 1227.874268,340.409729 1226.729370,336.264984 
	C1226.160400,334.763184 1225.346558,333.304993 1225.069946,331.751129 
	C1224.328735,327.586578 1221.937378,326.256104 1217.337891,327.028809 
	C1216.892090,327.074799 1216.446289,327.120789 1215.338379,327.028442 
	C1214.892090,327.074524 1214.445923,327.120575 1213.288940,326.803772 
z"/>
<path fill="#FF7701" opacity="1.000000" stroke="none" 
	d="
M1342.042114,1374.114502 
	C1338.922607,1379.015381 1335.802979,1383.916382 1332.146240,1388.674316 
	C1329.641357,1388.509644 1327.673584,1388.487915 1325.705933,1388.466064 
	C1326.485962,1390.347534 1327.265991,1392.229004 1328.046021,1394.110474 
	C1326.749756,1394.869141 1325.453613,1395.627930 1323.641846,1396.730469 
	C1320.203491,1399.538940 1317.263672,1401.983643 1314.362427,1404.473511 
	C1310.355469,1407.911865 1306.689819,1411.867920 1302.296753,1414.700928 
	C1298.169312,1417.362793 1293.889282,1419.463745 1292.373413,1424.598755 
	C1292.300781,1424.844849 1291.863403,1425.008057 1291.570068,1425.160522 
	C1286.837402,1427.620850 1285.186890,1432.076538 1283.999023,1436.833496 
	C1282.525146,1438.170166 1281.051147,1439.506714 1278.787842,1440.663696 
	C1272.740356,1440.908447 1266.045044,1437.745850 1263.974609,1446.172363 
	C1263.810425,1446.841187 1262.851440,1447.345581 1262.209229,1447.861084 
	C1258.815552,1450.585693 1255.404785,1453.289062 1251.696655,1456.148193 
	C1249.928833,1456.864258 1248.464478,1457.432129 1246.717285,1457.818726 
	C1243.071899,1456.493164 1243.179199,1458.892944 1242.750000,1461.000000 
	C1242.500000,1461.000000 1242.000000,1461.000000 1241.719727,1461.103516 
	C1240.959473,1461.804565 1240.479736,1462.402344 1239.601074,1463.010498 
	C1236.844238,1463.647217 1234.519897,1464.545898 1232.121460,1464.840698 
	C1227.671265,1465.387573 1225.784302,1467.780640 1226.042358,1472.114746 
	C1225.578125,1472.412842 1225.113770,1472.710815 1224.036133,1472.846069 
	C1217.597900,1471.553833 1213.292114,1473.685547 1210.999634,1478.833496 
	C1201.952881,1481.894287 1192.906006,1484.955078 1183.222290,1487.765259 
	C1176.942871,1484.579834 1173.233032,1486.093384 1171.999146,1491.833496 
	C1166.961426,1492.894287 1161.923706,1493.955200 1156.259033,1494.769531 
	C1149.049194,1489.676270 1140.583984,1491.869995 1138.999634,1498.833252 
	C1130.277222,1500.547119 1121.554688,1502.260986 1112.350586,1503.550293 
	C1108.223877,1499.752319 1101.407593,1501.340820 1099.042358,1506.114868 
	C1091.037231,1507.744751 1083.029785,1509.364136 1075.029419,1511.016968 
	C1073.936523,1511.242676 1072.878174,1511.636108 1071.304199,1511.564575 
	C1069.419434,1507.455566 1066.567993,1508.349976 1063.808716,1508.955566 
	C1060.309204,1509.723755 1056.376343,1509.916504 1055.999634,1514.833618 
	C1051.926514,1515.234131 1047.844971,1515.567627 1043.785400,1516.075684 
	C1042.568726,1516.228027 1041.418579,1516.884644 1040.228027,1517.279785 
	C1038.441284,1517.872437 1036.645752,1518.438721 1034.292969,1518.809814 
	C1033.154785,1518.068970 1032.577393,1517.534424 1031.870850,1516.711426 
	C1030.494385,1516.615234 1029.247192,1516.807617 1027.615479,1516.991333 
	C1024.055298,1516.533203 1020.859802,1516.190918 1017.710327,1515.602173 
	C1014.945923,1515.085571 1013.973633,1516.364136 1014.365479,1518.784058 
	C1014.592407,1520.185425 1015.434265,1521.487061 1015.999390,1522.833618 
	C1008.261841,1524.213989 1000.524353,1525.594360 992.217102,1526.601318 
	C988.327209,1525.962769 984.986206,1525.848755 981.692566,1525.392456 
	C977.916138,1524.869507 975.916992,1526.134644 976.042236,1530.114746 
	C970.513184,1531.036743 964.952515,1531.805542 959.466248,1532.935181 
	C955.855469,1533.678467 952.351868,1534.942261 948.284668,1535.569824 
	C943.830078,1531.719360 938.766785,1532.973145 936.999573,1537.833496 
	C931.020020,1539.219604 925.100708,1541.009521 919.049072,1541.912842 
	C903.503479,1544.233765 888.157043,1547.538940 872.761658,1550.621582 
	C861.800354,1552.816162 850.809265,1554.862183 839.301880,1556.573364 
	C834.778381,1552.657715 832.150513,1553.557251 830.999451,1558.833008 
	C830.258789,1558.894043 829.518127,1558.955200 828.364746,1558.717041 
	C826.855408,1557.486084 825.758728,1556.554443 824.662109,1555.622803 
	C823.774414,1557.359741 822.886780,1559.096558 821.999146,1560.833496 
	C813.352783,1562.379639 804.690491,1563.842529 796.063843,1565.491699 
	C783.949585,1567.807617 771.893738,1570.443848 759.748413,1572.575684 
	C754.209717,1573.547852 747.536316,1571.999878 743.175354,1574.604736 
	C738.989502,1577.104980 734.795288,1577.639771 730.672974,1578.494629 
	C715.234192,1581.696655 699.655212,1584.222290 684.130005,1587.008423 
	C682.376221,1587.323120 680.629944,1587.679565 678.334412,1587.735962 
	C675.549133,1584.380493 672.379395,1583.118652 669.193542,1585.024536 
	C667.556335,1586.003906 667.028625,1588.837769 665.999573,1590.833618 
	C658.943542,1592.213989 651.887451,1593.594360 644.306519,1594.578979 
	C640.489746,1590.529175 636.224121,1592.641724 632.444885,1592.639648 
	C631.630676,1592.639160 630.814636,1596.013062 629.999512,1597.832520 
	C620.304626,1599.885986 610.638733,1602.090088 600.908264,1603.958008 
	C585.721924,1606.873291 570.475830,1609.476562 555.284302,1612.365845 
	C537.069275,1615.829956 518.881836,1619.439575 500.688202,1623.015625 
	C481.538513,1626.779419 462.388977,1630.544922 443.252625,1634.375732 
	C434.327301,1636.162231 425.432190,1638.099854 416.525421,1639.978638 
	C412.552063,1640.816772 410.749847,1638.708374 410.094147,1635.179321 
	C408.042084,1624.135254 406.067963,1613.076538 403.998871,1602.035645 
	C401.571686,1589.083618 399.103394,1576.139038 396.604401,1563.200562 
	C393.087769,1544.993652 389.557678,1526.789185 385.976624,1508.594849 
	C381.453674,1485.614746 376.789246,1462.662354 372.347992,1439.666748 
	C369.415497,1424.483154 366.856079,1409.227905 363.969055,1394.035278 
	C361.023224,1378.532593 357.854187,1363.072632 354.831787,1347.584351 
	C351.187408,1328.908813 347.625946,1310.217163 343.969574,1291.543945 
	C340.969086,1276.220215 337.860596,1260.917480 334.839447,1245.597778 
	C331.535217,1228.842773 328.303986,1212.073242 324.990662,1195.320068 
	C320.794128,1174.101196 316.455933,1152.909912 312.352203,1131.673096 
	C309.418274,1116.489990 306.876556,1101.231201 303.963837,1086.043823 
	C300.961761,1070.390625 297.634308,1054.799805 294.610535,1039.150635 
	C291.307556,1022.056702 288.286560,1004.908142 284.961884,987.818542 
	C282.012177,972.656311 278.737000,957.557678 275.747131,942.403015 
	C272.409546,925.485657 269.246735,908.533813 265.979950,891.602356 
	C262.959412,875.947083 259.900269,860.299255 256.861084,844.647583 
	C253.233643,825.966064 249.669754,807.271973 245.965408,788.605774 
	C242.768921,772.498535 239.286240,756.447388 236.163330,740.326294 
	C232.634476,722.109680 229.440704,703.828308 225.961182,685.601868 
	C223.063492,670.423096 219.984085,655.278809 216.947189,640.126831 
	C213.655975,623.705994 210.278351,607.302307 207.015213,590.875916 
	C202.674133,569.023193 198.326096,547.171204 194.133667,525.289673 
	C190.641724,507.064240 187.494217,488.772552 183.966476,470.554291 
	C180.226013,451.237366 176.121567,431.990997 172.355881,412.678802 
	C169.427643,397.661530 166.882538,382.569672 163.972290,367.548737 
	C160.662613,350.466187 157.067032,333.439240 153.724838,316.362823 
	C150.724838,301.034912 147.727249,285.702728 145.055435,270.315704 
	C143.113190,259.130249 143.363007,259.152100 154.326782,257.019196 
	C172.846207,253.416412 191.347427,249.719986 209.857986,246.071579 
	C236.987717,240.724289 264.112183,235.349976 291.251251,230.050461 
	C325.577118,223.347565 359.904358,216.651031 394.251465,210.058182 
	C426.053497,203.953873 457.909180,198.126999 489.692108,191.926102 
	C522.729126,185.480515 555.684875,178.618576 588.719910,172.162354 
	C607.248718,168.541183 625.882568,165.461151 644.437439,161.969177 
	C656.584106,159.683228 668.719849,157.295868 680.762939,154.529129 
	C684.655029,153.634964 686.075989,154.663406 687.123779,158.243530 
	C693.098633,178.658859 703.115295,197.115158 716.398865,213.534973 
	C728.313354,228.262527 742.250305,240.996460 758.918457,250.521606 
	C771.721313,257.837830 784.851807,263.954865 799.581726,266.324402 
	C812.276367,268.366486 824.834961,269.752075 837.801880,268.202148 
	C850.018127,266.741882 861.992920,264.932892 873.331116,260.008789 
	C887.462280,253.871719 900.826355,246.451233 912.350830,236.083878 
	C914.291992,234.337585 915.558105,233.180954 918.090332,235.476654 
	C935.867188,251.593094 955.987244,263.498962 979.568054,269.026062 
	C980.177002,269.168762 980.729980,269.550354 981.740479,270.328094 
	C982.849365,275.076752 986.901489,272.679993 988.838257,274.226776 
	C992.178467,276.894409 993.808044,275.421478 995.000305,272.167084 
	C1003.031921,272.786316 1011.063538,273.405518 1019.653992,274.417969 
	C1023.429749,277.512146 1027.260742,276.868591 1030.000244,273.166962 
	C1033.041870,272.772247 1036.083374,272.377563 1039.577148,272.292694 
	C1041.932983,277.296387 1042.973389,277.597687 1046.282471,274.149963 
	C1047.380127,273.006348 1048.104980,271.504913 1049.000244,270.167053 
	C1052.715088,269.106018 1056.430054,268.044952 1060.765381,267.225128 
	C1066.925415,270.191345 1074.142334,267.080353 1076.000366,261.166565 
	C1076.765137,260.775574 1077.530029,260.384583 1078.925781,260.152832 
	C1085.658325,261.285767 1093.078247,256.892059 1095.000854,251.166779 
	C1099.808472,247.601822 1102.057007,249.734436 1104.383057,254.489594 
	C1106.498535,258.814209 1110.788940,262.125488 1112.651611,266.507874 
	C1114.238770,270.242310 1118.006226,271.499939 1119.514038,274.346588 
	C1123.015747,280.957520 1129.357300,284.192902 1134.366333,288.986816 
	C1135.528931,290.099457 1135.901733,292.037292 1136.252930,292.780487 
	C1139.453857,294.477356 1142.083252,295.871216 1144.731201,297.917999 
	C1142.187134,303.689728 1142.986938,306.525543 1149.431641,306.213470 
	C1151.500488,306.113251 1154.288330,307.210846 1155.655273,308.737915 
	C1160.405273,314.044220 1166.874878,314.564240 1173.096680,315.941467 
	C1173.096680,315.941467 1173.030029,315.967621 1173.104492,316.165527 
	C1173.786133,316.297821 1174.393188,316.232208 1175.000366,316.166565 
	C1175.163940,316.135651 1175.352417,316.035309 1175.487427,316.083862 
	C1181.788330,318.348663 1188.040161,320.763000 1194.400635,322.844879 
	C1197.573730,323.883453 1200.944824,324.316589 1204.653442,325.453125 
	C1206.848022,330.371582 1210.324951,329.969177 1214.271606,328.909485 
	C1215.029053,328.268250 1215.514771,327.717529 1216.000488,327.166809 
	C1216.446289,327.120789 1216.892090,327.074799 1217.775269,327.427277 
	C1219.109619,329.350525 1220.627563,330.815338 1220.781738,332.411835 
	C1221.170044,336.431793 1223.483521,337.237091 1226.833252,337.000916 
	C1227.874268,340.409729 1228.915405,343.818512 1229.590942,347.749939 
	C1226.069702,352.548584 1227.848755,357.436432 1233.114624,358.957855 
	C1233.747925,361.033661 1234.381226,363.109497 1234.805176,365.840271 
	C1231.524048,373.248291 1235.183105,379.094971 1237.246338,385.113464 
	C1237.423828,385.631317 1239.077881,385.643005 1240.045898,385.889862 
	C1241.983887,394.848907 1245.639648,403.867767 1245.330322,412.748535 
	C1245.070923,420.200256 1248.369751,426.475952 1248.453125,433.585938 
	C1248.536865,440.720642 1250.113159,447.835297 1250.993286,454.963959 
	C1251.729614,460.926666 1250.406006,467.034454 1252.775513,472.946991 
	C1253.494995,474.742462 1252.072632,477.306915 1252.032715,479.526367 
	C1252.004272,481.099335 1252.778564,482.668701 1252.974976,484.266663 
	C1254.959717,500.409912 1253.800171,516.497070 1252.021973,532.568481 
	C1250.690796,544.597656 1249.702026,556.679993 1247.878906,568.634583 
	C1246.464844,577.907532 1243.996948,587.019836 1241.547119,596.617432 
	C1235.042236,599.323730 1233.106689,606.007874 1236.833008,611.754517 
	C1236.588989,612.305725 1236.344971,612.856934 1235.626343,613.749756 
	C1227.315186,618.915222 1225.458130,624.395386 1229.045654,632.110474 
	C1228.026123,634.171143 1227.006470,636.231812 1225.568604,638.730835 
	C1219.681763,641.786438 1218.249878,645.544983 1220.885498,650.364319 
	C1220.508667,651.158691 1220.131836,651.953064 1219.067627,652.915405 
	C1214.431885,653.708435 1212.900757,656.563477 1211.788574,660.266968 
	C1206.791016,663.765137 1205.221191,668.934204 1203.385498,673.973999 
	C1203.003662,675.021790 1202.345215,676.351440 1201.451050,676.764282 
	C1197.364258,678.651489 1196.624268,682.300110 1196.042236,686.114807 
	C1196.042236,686.114807 1195.981445,686.567322 1195.528198,686.794067 
	C1191.833252,687.055420 1189.846802,688.585388 1188.970093,691.773254 
	C1188.691772,692.785339 1187.741943,694.401001 1187.100586,694.400513 
	C1181.892944,694.396729 1181.067871,698.823120 1178.618652,702.009766 
	C1172.877686,703.272400 1168.133301,710.137390 1167.999390,716.833557 
	C1162.575806,721.814087 1157.152222,726.794556 1151.057617,731.762695 
	C1143.699585,730.290710 1141.448853,732.238098 1143.110352,738.045959 
	C1142.105469,739.010254 1141.100708,739.974487 1139.475952,740.632629 
	C1134.437012,739.260193 1130.429321,739.365417 1127.602905,743.750061 
	C1126.916382,744.815063 1125.786743,746.037598 1124.656860,746.296265 
	C1119.885620,747.388489 1119.580933,750.281067 1121.042603,754.114441 
	C1120.532593,758.610962 1122.139160,761.985779 1126.654297,764.448669 
	C1127.853027,766.058411 1128.703125,768.244080 1129.516479,768.230530 
	C1133.016846,768.172424 1136.506470,767.468689 1140.216064,767.288940 
	C1146.008179,771.690247 1152.629761,769.457947 1158.709839,770.518982 
	C1159.050903,770.578491 1159.566162,769.640442 1160.000366,769.166748 
	C1164.547729,770.185425 1169.094971,771.204163 1173.864746,772.921448 
	C1176.213135,778.325684 1179.279297,778.804077 1184.000366,775.166748 
	C1190.438843,777.386658 1196.877441,779.606567 1203.718628,782.344116 
	C1206.830811,784.425659 1210.330566,785.380798 1212.095093,787.672180 
	C1216.622437,793.551086 1222.405518,794.686584 1229.114746,793.957642 
	C1231.321045,794.715332 1233.527222,795.473083 1235.889893,796.945679 
	C1237.380005,802.646851 1241.340088,805.174988 1245.572510,807.045166 
	C1247.802979,808.030762 1250.664917,810.506470 1253.043213,806.886658 
	C1254.882080,808.275940 1256.731201,809.651978 1258.555054,811.060730 
	C1259.361572,811.683838 1260.089355,812.409363 1260.900024,813.026611 
	C1264.921631,816.088989 1268.959229,819.130737 1273.008057,822.949280 
	C1272.929077,825.678711 1272.136353,829.011841 1272.850708,829.374146 
	C1277.249390,831.605225 1279.312866,835.217346 1281.447632,839.423035 
	C1282.579102,841.652222 1286.395630,842.518494 1289.152588,844.310913 
	C1290.881958,845.719299 1293.049805,846.476746 1293.916016,847.982727 
	C1295.905884,851.443298 1297.126953,855.285217 1302.011597,855.854858 
	C1302.808594,855.947815 1303.346069,857.904724 1304.086792,858.940674 
	C1304.823364,859.971069 1305.595581,860.992981 1306.472168,861.903198 
	C1310.142212,865.714233 1314.296387,869.158936 1317.400879,873.379517 
	C1319.459229,876.177856 1321.151367,878.352905 1324.833374,878.000793 
	C1325.495850,878.773865 1326.158325,879.546936 1326.809814,880.934692 
	C1328.384521,886.075378 1329.706299,890.718506 1331.645508,895.087646 
	C1332.997314,898.133362 1334.498779,901.707092 1339.096802,900.941772 
	C1339.096802,900.941772 1339.029297,900.972534 1339.069702,901.275940 
	C1339.772705,902.367188 1340.435303,903.155029 1341.097900,903.942932 
	C1341.097900,903.942932 1341.030640,903.972229 1341.033813,904.370605 
	C1340.368286,910.975464 1343.479736,915.332336 1348.010254,919.395691 
	C1349.301147,923.119751 1350.477295,926.493286 1351.890991,929.764160 
	C1353.375244,933.198608 1355.684937,936.391541 1356.538574,939.952576 
	C1357.476929,943.866638 1359.413696,946.033142 1363.114868,946.957825 
	C1363.748169,948.385315 1364.381592,949.812866 1364.843872,951.929260 
	C1364.521851,956.955811 1364.232910,961.296997 1364.346313,965.627747 
	C1364.366943,966.413696 1365.932129,967.559265 1366.967285,967.824341 
	C1368.503662,968.217773 1370.203125,967.973633 1371.833252,968.000854 
	C1373.794556,979.652100 1380.987793,989.539429 1382.706299,1001.582520 
	C1377.060547,1003.691284 1379.428101,1008.427795 1379.547729,1011.379944 
	C1379.708130,1015.331604 1383.411865,1013.391052 1385.833374,1013.000671 
	C1386.224609,1014.382385 1386.615845,1015.764099 1386.878418,1017.879883 
	C1386.728271,1022.802673 1386.158325,1027.087280 1386.868286,1031.148193 
	C1387.388428,1034.122925 1387.678101,1038.526611 1392.833252,1038.000732 
	C1394.213745,1044.392334 1395.594116,1050.783936 1396.624756,1057.733643 
	C1395.972534,1060.103149 1396.036377,1062.081909 1395.299927,1063.695312 
	C1393.022705,1068.684326 1395.719849,1069.777344 1399.833252,1070.000732 
	C1401.109497,1077.429688 1402.401611,1084.855957 1403.646729,1092.290161 
	C1403.859131,1093.558838 1403.870728,1094.861084 1403.603027,1096.747803 
	C1400.063232,1103.767456 1400.403931,1105.687500 1405.113892,1107.958130 
	C1405.418823,1114.714600 1408.890747,1121.360474 1405.522095,1128.307495 
	C1405.003052,1129.377930 1406.737061,1131.369019 1406.939331,1132.995239 
	C1407.443359,1137.048706 1407.867676,1141.132812 1407.955688,1145.212646 
	C1408.113159,1152.523193 1408.234009,1159.848633 1407.947632,1167.151367 
	C1407.463867,1179.483154 1406.650391,1191.802002 1405.571533,1204.648560 
	C1401.378784,1206.902466 1400.605591,1208.807251 1404.832642,1210.999390 
	C1404.424561,1212.389526 1404.043701,1213.788574 1403.599854,1215.167236 
	C1403.223145,1216.337524 1402.121460,1217.741333 1402.459961,1218.601074 
	C1405.197876,1225.555908 1402.116333,1231.547974 1399.858154,1237.780396 
	C1399.281250,1239.372681 1399.902466,1241.399170 1399.545898,1243.648193 
	C1394.960327,1245.136475 1393.561523,1247.764771 1394.438232,1251.916260 
	C1394.844971,1253.842163 1394.825317,1255.858154 1394.999023,1257.833252 
	C1394.675049,1260.657837 1394.638672,1263.556885 1393.932251,1266.282349 
	C1393.406494,1268.310547 1392.024292,1270.119751 1390.998657,1272.013062 
	C1390.721436,1272.524780 1389.998291,1273.060181 1390.080322,1273.462280 
	C1391.585449,1280.839478 1386.993164,1286.891479 1385.101562,1293.911621 
	C1383.291870,1295.107544 1382.145874,1296.053711 1380.668457,1297.182739 
	C1380.262451,1300.924927 1380.187744,1304.484375 1380.113159,1308.043701 
	C1379.966309,1308.627441 1379.819580,1309.211060 1379.033447,1309.983643 
	C1376.788452,1311.259033 1374.429565,1311.983276 1373.703613,1313.492676 
	C1369.957275,1321.283203 1366.644165,1329.281494 1363.137329,1337.188232 
	C1362.680786,1338.217163 1362.212891,1339.555542 1361.351074,1340.039673 
	C1355.515747,1343.317871 1355.947876,1348.521729 1356.803589,1353.916504 
	C1356.750488,1354.223022 1356.697266,1354.529419 1356.013916,1354.946411 
	C1351.132812,1355.419434 1348.699585,1357.453125 1348.662598,1362.143555 
	C1343.740112,1363.309814 1339.539917,1364.511353 1342.573486,1370.803223 
	C1342.971802,1371.629517 1342.246826,1372.997437 1342.042114,1374.114502 
M730.410767,1249.479858 
	C734.218140,1249.641846 738.024475,1249.890625 741.833313,1249.938721 
	C744.952820,1249.978149 746.805420,1248.411133 747.801331,1245.001709 
	C760.214661,1242.087280 772.708923,1239.766113 783.778992,1239.189819 
	C788.787354,1237.863159 792.353271,1237.063721 795.826965,1235.971069 
	C806.176819,1232.715698 817.183289,1232.981323 827.580688,1229.450684 
	C835.015015,1226.926270 843.168091,1226.518677 851.064453,1225.835083 
	C851.825562,1226.698120 852.586609,1227.561035 853.347656,1228.424072 
	C854.551086,1226.911011 855.754456,1225.397949 857.281738,1223.272095 
	C858.187744,1223.236938 859.093750,1223.201782 860.321411,1223.747925 
	C862.932495,1225.800659 864.802429,1225.190796 866.728149,1221.790161 
	C878.652771,1219.526733 890.572266,1217.235718 902.504028,1215.010498 
	C909.659607,1213.676025 916.834412,1212.444458 924.402283,1211.800293 
	C926.435608,1212.199707 928.455750,1212.831421 930.505127,1212.947266 
	C934.088440,1213.149780 937.692139,1213.120361 941.282288,1213.015503 
	C942.957581,1212.966553 944.621155,1212.514648 946.290039,1212.245361 
	C945.823242,1210.481567 945.356445,1208.717773 945.316467,1206.260864 
	C953.949280,1204.633179 962.577515,1202.981079 971.217041,1201.389893 
	C974.737915,1200.741333 978.659790,1200.990356 981.733704,1199.478271 
	C987.058594,1196.859009 991.865112,1193.185669 997.567261,1190.232788 
	C999.819031,1190.030884 1002.204163,1190.231812 1004.294006,1189.540405 
	C1008.266968,1188.225830 1008.383423,1185.784546 1005.156982,1182.346436 
	C1008.090027,1179.526733 1011.023010,1176.707153 1014.493652,1174.273071 
	C1020.677612,1174.111084 1022.778381,1171.059570 1021.003906,1164.224121 
	C1021.631042,1163.135254 1022.258118,1162.046509 1023.576904,1160.811768 
	C1025.178955,1159.685913 1027.264648,1158.881226 1028.273804,1157.361694 
	C1029.928345,1154.870117 1032.854492,1152.029419 1028.983154,1148.250732 
	C1029.377686,1147.167358 1029.772217,1146.083862 1030.888916,1144.925659 
	C1034.681519,1143.110474 1038.935181,1132.296753 1037.124390,1128.752441 
	C1036.727905,1127.976440 1035.645630,1127.550659 1034.982056,1126.090576 
	C1035.321411,1115.849121 1036.182983,1105.590088 1035.836914,1095.371826 
	C1035.553589,1087.006836 1033.861572,1078.686401 1032.730469,1070.354858 
	C1032.341187,1067.487305 1031.810791,1064.635498 1031.253296,1061.794556 
	C1030.610474,1058.519165 1029.866577,1055.263794 1029.755615,1051.668457 
	C1029.554565,1046.780029 1029.804932,1041.815796 1029.000122,1037.028809 
	C1028.422974,1033.595459 1027.158691,1029.677246 1022.012024,1029.264282 
	C1021.635559,1027.856079 1021.259155,1026.447876 1021.511475,1024.753052 
	C1021.590088,1022.979126 1022.281128,1020.932861 1021.635620,1019.480835 
	C1019.457520,1014.581421 1015.373047,1010.091919 1014.675964,1005.076172 
	C1013.682678,997.927979 1009.071411,996.639099 1003.184692,994.991821 
	C1000.086975,991.473877 997.395325,987.458069 993.811951,984.535645 
	C984.754578,977.148865 975.966431,969.506958 964.867859,964.786804 
	C950.880615,958.838074 936.787598,957.591064 922.117493,960.438843 
	C907.748596,963.228149 893.414978,966.199158 879.043701,968.975708 
	C862.429138,972.185669 845.779358,975.212891 829.165039,978.424133 
	C809.522217,982.220764 789.905823,986.154297 770.268799,989.981445 
	C752.224426,993.498230 734.167969,996.953003 716.116577,1000.434021 
	C703.018127,1002.959961 689.917297,1005.473145 676.821777,1008.014282 
	C670.127258,1009.313293 663.352234,1010.341614 656.808716,1012.185059 
	C654.894165,1012.724548 652.224915,1015.763306 652.364197,1017.453613 
	C652.799011,1022.729736 654.484802,1027.893799 655.555115,1033.128052 
	C659.399109,1051.927124 663.264709,1070.722534 666.973633,1089.548462 
	C669.426697,1101.999878 671.546692,1114.516479 673.958435,1126.976318 
	C677.235229,1143.905396 680.675354,1160.802490 683.994812,1177.723389 
	C687.000488,1193.044800 689.992798,1208.369141 692.878906,1223.713379 
	C694.019897,1229.779663 694.857727,1235.902954 695.185059,1242.215576 
	C693.708435,1244.043945 693.622986,1255.694580 695.091614,1256.929810 
	C695.335083,1257.134521 695.704224,1257.417236 695.946045,1257.361938 
	C698.790466,1256.709839 702.521973,1258.249146 704.718323,1253.798218 
	C713.131226,1252.160889 721.544067,1250.523560 730.410767,1249.479858 
M586.365845,483.989014 
	C575.992249,486.004181 565.563171,487.788544 555.298035,490.255035 
	C553.526367,490.680695 550.982361,494.258331 551.277405,495.946014 
	C554.637146,515.161926 558.471497,534.294922 562.194580,553.447083 
	C566.787903,577.075684 571.354431,600.709717 576.010559,624.325989 
	C579.816101,643.628357 583.725403,662.910278 587.609253,682.197144 
	C590.362854,695.871033 593.277710,709.514160 595.857605,723.220520 
	C596.813416,728.297974 599.091553,730.567627 604.110535,729.967773 
	C605.554077,729.795227 606.953613,729.283386 608.389038,729.009827 
	C623.730713,726.086121 639.084167,723.224304 654.417175,720.255981 
	C673.579712,716.546204 692.721130,712.727173 711.880981,709.003357 
	C727.050659,706.055054 742.245483,703.235474 757.409058,700.256592 
	C776.236145,696.557983 795.039246,692.737732 813.858948,689.001343 
	C825.821655,686.626343 838.065308,685.210754 849.696045,681.735413 
	C864.081116,677.437134 875.256714,667.979553 885.158203,656.580017 
	C900.518616,638.895691 906.032471,617.722900 907.740417,595.390930 
	C908.574646,584.482788 907.280884,573.287781 905.876587,562.360535 
	C903.543091,544.203918 901.526367,525.787720 892.869141,509.233551 
	C887.289307,498.564026 881.957214,487.348999 874.243042,478.318329 
	C864.878113,467.355072 854.734863,456.938934 841.090210,450.102417 
	C825.294006,442.187866 809.552124,440.193085 792.639587,443.685150 
	C780.534790,446.184540 768.426392,448.676270 756.280396,450.963501 
	C736.126465,454.758698 715.916321,458.257141 695.775330,462.117981 
	C670.544006,466.954590 645.350647,471.990631 620.157227,477.022278 
	C609.161743,479.218292 598.206848,481.617249 586.365845,483.989014 
z"/>
<path fill="#FF7701" opacity="1.000000" stroke="none" 
	d="
M1284.333740,1436.808350 
	C1285.186890,1432.076538 1286.837402,1427.620850 1291.570068,1425.160522 
	C1291.863403,1425.008057 1292.300781,1424.844849 1292.373413,1424.598755 
	C1293.889282,1419.463745 1298.169312,1417.362793 1302.296753,1414.700928 
	C1306.689819,1411.867920 1310.355469,1407.911865 1314.362427,1404.473511 
	C1317.263672,1401.983643 1320.203491,1399.538940 1323.479736,1397.036865 
	C1321.972290,1400.078125 1320.432007,1403.420776 1318.169434,1406.168823 
	C1315.305664,1409.647339 1311.980469,1412.781616 1308.628784,1415.815063 
	C1302.573608,1421.295532 1296.351318,1426.591431 1290.198120,1431.963501 
	C1288.356201,1433.571533 1286.511719,1435.176636 1284.333740,1436.808350 
z"/>
<path fill="#FF7701" opacity="1.000000" stroke="none" 
	d="
M1324.775635,877.655762 
	C1321.151367,878.352905 1319.459229,876.177856 1317.400879,873.379517 
	C1314.296387,869.158936 1310.142212,865.714233 1306.472168,861.903198 
	C1305.595581,860.992981 1304.823364,859.971069 1304.086792,858.940674 
	C1303.346069,857.904724 1302.808594,855.947815 1302.011597,855.854858 
	C1297.126953,855.285217 1295.905884,851.443298 1293.916016,847.982727 
	C1293.049805,846.476746 1290.881958,845.719299 1289.199585,843.967957 
	C1290.410645,842.171753 1291.727295,841.029480 1293.043945,839.887207 
	C1301.562500,849.616028 1310.123291,859.308289 1318.571045,869.098267 
	C1320.799438,871.680847 1322.678345,874.565002 1324.775635,877.655762 
z"/>
<path fill="#FF7601" opacity="1.000000" stroke="none" 
	d="
M1356.984131,1353.616455 
	C1355.947876,1348.521729 1355.515747,1343.317871 1361.351074,1340.039673 
	C1362.212891,1339.555542 1362.680786,1338.217163 1363.137329,1337.188232 
	C1366.644165,1329.281494 1369.957275,1321.283203 1373.703613,1313.492676 
	C1374.429565,1311.983276 1376.788452,1311.259033 1378.754517,1310.107422 
	C1371.798218,1324.466919 1364.481445,1338.891724 1356.984131,1353.616455 
z"/>
<path fill="#FF7701" opacity="1.000000" stroke="none" 
	d="
M1292.918335,839.588379 
	C1291.727295,841.029480 1290.410645,842.171753 1289.046997,843.656982 
	C1286.395630,842.518494 1282.579102,841.652222 1281.447632,839.423035 
	C1279.312866,835.217346 1277.249390,831.605225 1272.850708,829.374146 
	C1272.136353,829.011841 1272.929077,825.678711 1273.033691,823.302063 
	C1276.615845,825.343445 1280.189575,827.801453 1283.920654,830.925171 
	C1284.609131,833.641235 1284.726685,836.188843 1288.043823,834.887390 
	C1289.626831,836.354797 1291.209839,837.822205 1292.918335,839.588379 
z"/>
<path fill="#FF7701" opacity="1.000000" stroke="none" 
	d="
M1173.046143,315.575806 
	C1166.874878,314.564240 1160.405273,314.044220 1155.655273,308.737915 
	C1154.288330,307.210846 1151.500488,306.113251 1149.431641,306.213470 
	C1142.986938,306.525543 1142.187134,303.689728 1144.899902,298.232147 
	C1153.219360,302.898376 1161.392578,307.897736 1169.554932,312.914764 
	C1170.728638,313.636169 1171.849976,314.442932 1173.046143,315.575806 
z"/>
<path fill="#FF7701" opacity="1.000000" stroke="none" 
	d="
M1252.000000,1456.000000 
	C1255.404785,1453.289062 1258.815552,1450.585693 1262.209229,1447.861084 
	C1262.851440,1447.345581 1263.810425,1446.841187 1263.974609,1446.172363 
	C1266.045044,1437.745850 1272.740356,1440.908447 1278.457764,1440.643066 
	C1270.867920,1446.202393 1262.818848,1451.602783 1254.188232,1456.858887 
	C1253.071167,1456.476318 1252.535645,1456.238159 1252.000000,1456.000000 
z"/>
<path fill="#FF7701" opacity="1.000000" stroke="none" 
	d="
M1179.000000,702.000000 
	C1181.067871,698.823120 1181.892944,694.396729 1187.100586,694.400513 
	C1187.741943,694.401001 1188.691772,692.785339 1188.970093,691.773254 
	C1189.846802,688.585388 1191.833252,687.055420 1195.454102,687.009949 
	C1194.544067,689.396545 1193.641235,692.133972 1191.889893,694.125061 
	C1187.371948,699.261169 1182.478638,704.067322 1177.454102,708.696899 
	C1177.781982,706.259094 1178.390991,704.129578 1179.000000,702.000000 
z"/>
<path fill="#FF7701" opacity="1.000000" stroke="none" 
	d="
M1196.413086,686.065186 
	C1196.624268,682.300110 1197.364258,678.651489 1201.451050,676.764282 
	C1202.345215,676.351440 1203.003662,675.021790 1203.385498,673.973999 
	C1205.221191,668.934204 1206.791016,663.765137 1212.003906,660.467407 
	C1212.991333,660.948547 1213.552124,661.496216 1214.112793,662.043823 
	C1209.454590,669.481323 1204.852539,676.955383 1200.065430,684.308960 
	C1199.479736,685.208618 1197.901978,685.462463 1196.413086,686.065186 
z"/>
<path fill="#FF7601" opacity="1.000000" stroke="none" 
	d="
M1251.696655,1456.148193 
	C1252.535645,1456.238159 1253.071167,1456.476318 1253.827515,1456.911133 
	C1244.957031,1462.072876 1235.865845,1467.038086 1226.408569,1472.059082 
	C1225.784302,1467.780640 1227.671265,1465.387573 1232.121460,1464.840698 
	C1234.519897,1464.545898 1236.844238,1463.647217 1239.881348,1462.906982 
	C1241.040283,1462.195312 1241.520142,1461.597656 1242.000000,1461.000000 
	C1242.000000,1461.000000 1242.500000,1461.000000 1243.017944,1460.835815 
	C1244.690552,1459.781128 1245.845337,1458.890503 1247.000000,1458.000000 
	C1248.464478,1457.432129 1249.928833,1456.864258 1251.696655,1456.148193 
z"/>
<path fill="#FF7601" opacity="1.000000" stroke="none" 
	d="
M1363.065308,946.578308 
	C1359.413696,946.033142 1357.476929,943.866638 1356.538574,939.952576 
	C1355.684937,936.391541 1353.375244,933.198608 1351.890991,929.764160 
	C1350.477295,926.493286 1349.301147,923.119751 1348.020752,919.117126 
	C1348.028320,918.257141 1348.035645,918.071472 1348.043091,917.885742 
	C1349.372192,919.651489 1351.006348,921.265076 1351.976318,923.209900 
	C1355.770020,930.816040 1359.354004,938.526855 1363.065308,946.578308 
z"/>
<path fill="#FF7701" opacity="1.000000" stroke="none" 
	d="
M1121.364258,753.964844 
	C1119.580933,750.281067 1119.885620,747.388489 1124.656860,746.296265 
	C1125.786743,746.037598 1126.916382,744.815063 1127.602905,743.750061 
	C1130.429321,739.365417 1134.437012,739.260193 1139.117432,740.602478 
	C1136.224243,743.107361 1133.042358,745.298889 1129.922974,747.576111 
	C1127.141357,749.606750 1124.428955,751.731812 1121.364258,753.964844 
z"/>
<path fill="#FF7701" opacity="1.000000" stroke="none" 
	d="
M1229.057129,793.591431 
	C1222.405518,794.686584 1216.622437,793.551086 1212.095093,787.672180 
	C1210.330566,785.380798 1206.830811,784.425659 1204.060303,782.514343 
	C1212.332764,785.853027 1220.666016,789.539124 1229.057129,793.591431 
z"/>
<path fill="#FF7701" opacity="1.000000" stroke="none" 
	d="
M1252.901733,806.571655 
	C1250.664917,810.506470 1247.802979,808.030762 1245.572510,807.045166 
	C1241.340088,805.174988 1237.380005,802.646851 1236.044189,797.272827 
	C1241.614868,800.008972 1247.187500,803.132874 1252.901733,806.571655 
z"/>
<path fill="#FF7701" opacity="1.000000" stroke="none" 
	d="
M1339.049072,900.580078 
	C1334.498779,901.707092 1332.997314,898.133362 1331.645508,895.087646 
	C1329.706299,890.718506 1328.384521,886.075378 1326.924316,881.221375 
	C1331.033447,887.335144 1335.017334,893.776733 1339.049072,900.580078 
z"/>
<path fill="#FF7701" opacity="1.000000" stroke="none" 
	d="
M1178.618652,702.009766 
	C1178.390991,704.129578 1177.781982,706.259094 1177.106079,708.752563 
	C1174.257690,711.732422 1171.476074,714.348328 1168.346924,716.898926 
	C1168.133301,710.137390 1172.877686,703.272400 1178.618652,702.009766 
z"/>
<path fill="#FF7701" opacity="1.000000" stroke="none" 
	d="
M1229.369873,631.932983 
	C1225.458130,624.395386 1227.315186,618.915222 1235.492432,614.045410 
	C1233.786743,619.918152 1231.740356,625.836792 1229.369873,631.932983 
z"/>
<path fill="#FF7701" opacity="1.000000" stroke="none" 
	d="
M1016.407227,1522.903564 
	C1015.434265,1521.487061 1014.592407,1520.185425 1014.365479,1518.784058 
	C1013.973633,1516.364136 1014.945923,1515.085571 1017.710327,1515.602173 
	C1020.859802,1516.190918 1024.055298,1516.533203 1027.644165,1517.323242 
	C1028.408447,1518.458008 1028.759521,1519.252075 1029.110474,1520.046143 
	C1025.011963,1521.021973 1020.913513,1521.997681 1016.407227,1522.903564 
z"/>
<path fill="#FF7701" opacity="1.000000" stroke="none" 
	d="
M1139.401367,1498.892578 
	C1140.583984,1491.869995 1149.049194,1489.676270 1155.839600,1494.815918 
	C1150.632568,1496.389771 1145.217896,1497.670898 1139.401367,1498.892578 
z"/>
<path fill="#FF7701" opacity="1.000000" stroke="none" 
	d="
M1240.026123,385.480408 
	C1239.077881,385.643005 1237.423828,385.631317 1237.246338,385.113464 
	C1235.183105,379.094971 1231.524048,373.248291 1234.852051,366.223511 
	C1236.740845,372.324890 1238.373535,378.697937 1240.026123,385.480408 
z"/>
<path fill="#FF7601" opacity="1.000000" stroke="none" 
	d="
M1371.788574,967.641113 
	C1370.203125,967.973633 1368.503662,968.217773 1366.967285,967.824341 
	C1365.932129,967.559265 1364.366943,966.413696 1364.346313,965.627747 
	C1364.232910,961.296997 1364.521851,956.955811 1364.890259,952.284851 
	C1367.319824,957.061523 1369.531860,962.171509 1371.788574,967.641113 
z"/>
<path fill="#FF7701" opacity="1.000000" stroke="none" 
	d="
M1392.769409,1037.619507 
	C1387.678101,1038.526611 1387.388428,1034.122925 1386.868286,1031.148193 
	C1386.158325,1027.087280 1386.728271,1022.802673 1386.899658,1018.253784 
	C1388.934937,1024.341797 1390.820190,1030.790039 1392.769409,1037.619507 
z"/>
<path fill="#FF7701" opacity="1.000000" stroke="none" 
	d="
M1385.904053,1012.598267 
	C1383.411865,1013.391052 1379.708130,1015.331604 1379.547729,1011.379944 
	C1379.428101,1008.427795 1377.060547,1003.691284 1382.757568,1001.978760 
	C1384.069946,1005.372498 1385.022461,1008.784180 1385.904053,1012.598267 
z"/>
<path fill="#FF7701" opacity="1.000000" stroke="none" 
	d="
M1342.394775,1374.059570 
	C1342.246826,1372.997437 1342.971802,1371.629517 1342.573486,1370.803223 
	C1339.539917,1364.511353 1343.740112,1363.309814 1348.926758,1362.273926 
	C1350.056885,1362.521606 1350.585449,1362.782227 1351.114014,1363.042847 
	C1348.325195,1366.696777 1345.536377,1370.350708 1342.394775,1374.059570 
z"/>
<path fill="#FF7701" opacity="1.000000" stroke="none" 
	d="
M630.407715,1597.902588 
	C630.814636,1596.013062 631.630676,1592.639160 632.444885,1592.639648 
	C636.224121,1592.641724 640.489746,1590.529175 643.890564,1594.508301 
	C639.604919,1595.879761 635.210388,1596.926147 630.407715,1597.902588 
z"/>
<path fill="#FF7701" opacity="1.000000" stroke="none" 
	d="
M1056.401001,1514.892822 
	C1056.376343,1509.916504 1060.309204,1509.723755 1063.808716,1508.955566 
	C1066.567993,1508.349976 1069.419434,1507.455566 1070.902344,1511.505371 
	C1066.267578,1512.873047 1061.534912,1513.912598 1056.401001,1514.892822 
z"/>
<path fill="#FF7701" opacity="1.000000" stroke="none" 
	d="
M1094.640869,251.211761 
	C1093.078247,256.892059 1085.658325,261.285767 1079.254028,260.102295 
	C1084.061157,257.013947 1089.171021,254.135330 1094.640869,251.211761 
z"/>
<path fill="#FF7701" opacity="1.000000" stroke="none" 
	d="
M666.398926,1590.893311 
	C667.028625,1588.837769 667.556335,1586.003906 669.193542,1585.024536 
	C672.379395,1583.118652 675.549133,1584.380493 677.914124,1587.786133 
	C674.292542,1589.062256 670.545410,1590.007568 666.398926,1590.893311 
z"/>
<path fill="#FF7601" opacity="1.000000" stroke="none" 
	d="
M1237.054810,611.463501 
	C1233.106689,606.007874 1235.042236,599.323730 1241.464966,597.015259 
	C1240.314331,601.723572 1238.795410,606.447998 1237.054810,611.463501 
z"/>
<path fill="#FF7701" opacity="1.000000" stroke="none" 
	d="
M1075.629517,261.102234 
	C1074.142334,267.080353 1066.925415,270.191345 1061.169434,267.178345 
	C1065.721436,264.939545 1070.489990,262.988708 1075.629517,261.102234 
z"/>
<path fill="#FF7701" opacity="1.000000" stroke="none" 
	d="
M1159.586914,769.094604 
	C1159.566162,769.640442 1159.050903,770.578491 1158.709839,770.518982 
	C1152.629761,769.457947 1146.008179,771.690247 1140.216064,767.080566 
	C1140.000000,766.583252 1140.000122,766.166504 1140.000122,766.166504 
	C1146.391235,767.118469 1152.782227,768.070496 1159.586914,769.094604 
z"/>
<path fill="#FF7701" opacity="1.000000" stroke="none" 
	d="
M976.461304,1530.065918 
	C975.916992,1526.134644 977.916138,1524.869507 981.692566,1525.392456 
	C984.986206,1525.848755 988.327209,1525.962769 991.823669,1526.530640 
	C988.382874,1527.694214 984.773743,1528.590820 981.144653,1529.398071 
	C979.746460,1529.708862 978.303101,1529.816772 976.461304,1530.065918 
z"/>
<path fill="#FF7701" opacity="1.000000" stroke="none" 
	d="
M1226.781250,336.632935 
	C1223.483521,337.237091 1221.170044,336.431793 1220.781738,332.411835 
	C1220.627563,330.815338 1219.109619,329.350525 1218.106201,327.496277 
	C1221.937378,326.256104 1224.328735,327.586578 1225.069946,331.751129 
	C1225.346558,333.304993 1226.160400,334.763184 1226.781250,336.632935 
z"/>
<path fill="#FF7701" opacity="1.000000" stroke="none" 
	d="
M1348.023926,917.502258 
	C1348.035645,918.071472 1348.028320,918.257141 1348.010498,918.721436 
	C1343.479736,915.332336 1340.368286,910.975464 1341.048584,904.337036 
	C1343.375122,908.309631 1345.689941,912.714172 1348.023926,917.502258 
z"/>
<path fill="#FF7701" opacity="1.000000" stroke="none" 
	d="
M1395.356079,1257.759766 
	C1394.825317,1255.858154 1394.844971,1253.842163 1394.438232,1251.916260 
	C1393.561523,1247.764771 1394.960327,1245.136475 1399.475952,1244.034668 
	C1398.459839,1248.561401 1397.086548,1253.123779 1395.356079,1257.759766 
z"/>
<path fill="#FF7701" opacity="1.000000" stroke="none" 
	d="
M1099.466064,1506.066162 
	C1101.407593,1501.340820 1108.223877,1499.752319 1111.934570,1503.479492 
	C1107.963501,1504.561279 1103.926758,1505.289307 1099.466064,1506.066162 
z"/>
<path fill="#FF7701" opacity="1.000000" stroke="none" 
	d="
M994.585571,272.095886 
	C993.808044,275.421478 992.178467,276.894409 988.838257,274.226776 
	C986.901489,272.679993 982.849365,275.076752 982.085876,270.501221 
	C986.056763,270.786102 990.113831,271.405426 994.585571,272.095886 
z"/>
<path fill="#FF7601" opacity="1.000000" stroke="none" 
	d="
M1221.161377,650.183350 
	C1218.249878,645.544983 1219.681763,641.786438 1225.491943,639.084412 
	C1224.368042,642.667236 1222.902710,646.334839 1221.161377,650.183350 
z"/>
<path fill="#FF7601" opacity="1.000000" stroke="none" 
	d="
M1211.372803,1478.897705 
	C1213.292114,1473.685547 1217.597900,1471.553833 1223.735596,1472.895508 
	C1219.947632,1475.059204 1215.846924,1477.010620 1211.372803,1478.897705 
z"/>
<path fill="#FF7701" opacity="1.000000" stroke="none" 
	d="
M1172.374268,1491.774902 
	C1173.233032,1486.093384 1176.942871,1484.579834 1182.816284,1487.811768 
	C1179.614624,1489.311279 1176.182007,1490.513672 1172.374268,1491.774902 
z"/>
<path fill="#FF7701" opacity="1.000000" stroke="none" 
	d="
M1048.595703,270.096405 
	C1048.104980,271.504913 1047.380127,273.006348 1046.282471,274.149963 
	C1042.973389,277.597687 1041.932983,277.296387 1039.995117,272.242279 
	C1042.704224,271.263245 1045.447632,270.644501 1048.595703,270.096405 
z"/>
<path fill="#FF7701" opacity="1.000000" stroke="none" 
	d="
M1233.064941,358.561066 
	C1227.848755,357.436432 1226.069702,352.548584 1229.529175,348.136871 
	C1230.893677,351.388885 1231.954468,354.776581 1233.064941,358.561066 
z"/>
<path fill="#FF7701" opacity="1.000000" stroke="none" 
	d="
M937.410645,1537.904297 
	C938.766785,1532.973145 943.830078,1531.719360 947.884644,1535.500000 
	C944.607361,1536.547241 941.214539,1537.261108 937.410645,1537.904297 
z"/>
<path fill="#FF7601" opacity="1.000000" stroke="none" 
	d="
M1380.434814,1307.859619 
	C1380.187744,1304.484375 1380.262451,1300.924927 1381.058350,1297.185059 
	C1382.558838,1297.016235 1383.338135,1297.027954 1384.117432,1297.039673 
	C1382.997070,1300.584961 1381.876709,1304.130249 1380.434814,1307.859619 
z"/>
<path fill="#FF7701" opacity="1.000000" stroke="none" 
	d="
M1143.458740,738.020020 
	C1141.448853,732.238098 1143.699585,730.290710 1150.746460,731.900024 
	C1148.673218,734.031189 1146.240112,736.012634 1143.458740,738.020020 
z"/>
<path fill="#FF7701" opacity="1.000000" stroke="none" 
	d="
M1399.766846,1069.617065 
	C1395.719849,1069.777344 1393.022705,1068.684326 1395.299927,1063.695312 
	C1396.036377,1062.081909 1395.972534,1060.103149 1396.553711,1058.145752 
	C1397.788452,1061.744507 1398.744385,1065.488892 1399.766846,1069.617065 
z"/>
<path fill="#FF7701" opacity="1.000000" stroke="none" 
	d="
M1328.351196,1393.975586 
	C1327.265991,1392.229004 1326.485962,1390.347534 1325.705933,1388.466064 
	C1327.673584,1388.487915 1329.641357,1388.509644 1331.828369,1388.820068 
	C1330.917114,1390.685913 1329.786743,1392.263306 1328.351196,1393.975586 
z"/>
<path fill="#FF7701" opacity="1.000000" stroke="none" 
	d="
M1139.587524,766.081665 
	C1140.000122,766.166504 1140.000000,766.583252 1140.000000,766.791626 
	C1136.506470,767.468689 1133.016846,768.172424 1129.516479,768.230530 
	C1128.703125,768.244080 1127.853027,766.058411 1127.009644,764.525574 
	C1131.057861,764.776672 1135.116455,765.386719 1139.587524,766.081665 
z"/>
<path fill="#FF7701" opacity="1.000000" stroke="none" 
	d="
M1214.429932,661.900024 
	C1213.552124,661.496216 1212.991333,660.948547 1212.215332,660.200439 
	C1212.900757,656.563477 1214.431885,653.708435 1218.747559,653.062744 
	C1217.658936,655.946899 1216.203003,658.851562 1214.429932,661.900024 
z"/>
<path fill="#FF7701" opacity="1.000000" stroke="none" 
	d="
M1405.065308,1107.517578 
	C1400.403931,1105.687500 1400.063232,1103.767456 1403.532227,1097.173828 
	C1404.227905,1100.359009 1404.622314,1103.717896 1405.065308,1107.517578 
z"/>
<path fill="#FF7701" opacity="1.000000" stroke="none" 
	d="
M1183.610718,775.086182 
	C1179.279297,778.804077 1176.213135,778.325684 1174.064697,773.252563 
	C1177.101807,773.591980 1180.161499,774.298767 1183.610718,775.086182 
z"/>
<path fill="#FF7601" opacity="1.000000" stroke="none" 
	d="
M1351.425293,1362.874268 
	C1350.585449,1362.782227 1350.056885,1362.521606 1349.264160,1362.130493 
	C1348.699585,1357.453125 1351.132812,1355.419434 1355.774414,1355.029053 
	C1354.688965,1357.569214 1353.212769,1360.137329 1351.425293,1362.874268 
z"/>
<path fill="#FF7701" opacity="1.000000" stroke="none" 
	d="
M1029.563110,273.096069 
	C1027.260742,276.868591 1023.429749,277.512146 1020.106689,274.488831 
	C1023.042419,273.786041 1026.084229,273.405609 1029.563110,273.096069 
z"/>
<path fill="#FF7701" opacity="1.000000" stroke="none" 
	d="
M831.386536,1558.894775 
	C832.150513,1553.557251 834.778381,1552.657715 838.885864,1556.502686 
	C836.590881,1557.541016 834.182251,1558.248901 831.386536,1558.894775 
z"/>
<path fill="#FF7701" opacity="1.000000" stroke="none" 
	d="
M1214.000000,329.000000 
	C1210.324951,329.969177 1206.848022,330.371582 1205.040039,325.524841 
	C1207.762695,325.712616 1210.525879,326.258179 1213.644531,327.290771 
	C1214.000000,328.185181 1214.000000,328.592590 1214.000000,329.000000 
z"/>
<path fill="#FF7701" opacity="1.000000" stroke="none" 
	d="
M822.365173,1560.782959 
	C822.886780,1559.096558 823.774414,1557.359741 824.662109,1555.622803 
	C825.758728,1556.554443 826.855408,1557.486084 827.995483,1558.767334 
	C826.269714,1559.655518 824.500427,1560.193970 822.365173,1560.782959 
z"/>
<path fill="#FF7701" opacity="1.000000" stroke="none" 
	d="
M1405.011475,1210.647217 
	C1400.605591,1208.807251 1401.378784,1206.902466 1405.500732,1205.085449 
	C1405.619263,1206.765015 1405.404907,1208.530029 1405.011475,1210.647217 
z"/>
<path fill="#FF7701" opacity="1.000000" stroke="none" 
	d="
M1029.492188,1520.026489 
	C1028.759521,1519.252075 1028.408447,1518.458008 1028.428711,1517.332031 
	C1029.866577,1517.000000 1030.933350,1517.000000 1032.000000,1517.000000 
	C1032.577393,1517.534424 1033.154785,1518.068970 1033.889648,1518.856201 
	C1032.656006,1519.408325 1031.265015,1519.707642 1029.492188,1520.026489 
z"/>
<path fill="#FF7701" opacity="1.000000" stroke="none" 
	d="
M1287.922119,834.592651 
	C1284.726685,836.188843 1284.609131,833.641235 1284.060059,831.238342 
	C1285.294800,832.023132 1286.547485,833.160522 1287.922119,834.592651 
z"/>
<path fill="#FF7701" opacity="1.000000" stroke="none" 
	d="
M1384.420654,1296.882324 
	C1383.338135,1297.027954 1382.558838,1297.016235 1381.389648,1297.002197 
	C1382.145874,1296.053711 1383.291870,1295.107544 1384.776367,1294.101807 
	C1384.984497,1294.936401 1384.854126,1295.830688 1384.420654,1296.882324 
z"/>
<path fill="#FF7701" opacity="1.000000" stroke="none" 
	d="
M1341.051514,903.618591 
	C1340.435303,903.155029 1339.772705,902.367188 1339.084961,901.242188 
	C1339.708374,901.701477 1340.356812,902.497864 1341.051514,903.618591 
z"/>
<path fill="#FF7701" opacity="1.000000" stroke="none" 
	d="
M1174.680664,316.094604 
	C1174.393188,316.232208 1173.786133,316.297821 1173.117798,316.132324 
	C1173.491333,315.941650 1173.926147,315.982117 1174.680664,316.094604 
z"/>
<path fill="#FF7701" opacity="1.000000" stroke="none" 
	d="
M1214.271606,328.909485 
	C1214.000000,328.592590 1214.000000,328.185181 1213.999756,327.472229 
	C1214.445923,327.120575 1214.892090,327.074524 1215.669434,327.097626 
	C1215.514771,327.717529 1215.029053,328.268250 1214.271606,328.909485 
z"/>
<path fill="#000000" opacity="1.000000" stroke="none" 
	d="
M1029.166626,1051.999634 
	C1029.866577,1055.263794 1030.610474,1058.519165 1031.253296,1061.794556 
	C1031.810791,1064.635498 1032.341187,1067.487305 1032.730469,1070.354858 
	C1033.861572,1078.686401 1035.553589,1087.006836 1035.836914,1095.371826 
	C1036.182983,1105.590088 1035.321411,1115.849121 1034.593750,1126.738525 
	C1032.859253,1133.257812 1031.512939,1139.129150 1030.166626,1145.000488 
	C1029.772217,1146.083862 1029.377686,1147.167358 1028.620117,1148.773560 
	C1026.466431,1153.183472 1024.675781,1157.070557 1022.885254,1160.957642 
	C1022.258118,1162.046509 1021.631042,1163.135254 1020.662598,1164.701660 
	C1018.199585,1168.081909 1016.077759,1170.984619 1013.955994,1173.887451 
	C1011.023010,1176.707153 1008.090027,1179.526733 1004.714722,1182.784912 
	C1001.811340,1185.467163 999.350098,1187.710693 996.888916,1189.954346 
	C991.865112,1193.185669 987.058594,1196.859009 981.733704,1199.478271 
	C978.659790,1200.990356 974.737915,1200.741333 971.217041,1201.389893 
	C962.577515,1202.981079 953.949280,1204.633179 944.681519,1206.627197 
	C937.364624,1208.384521 930.682617,1209.775635 924.000610,1211.166748 
	C916.834412,1212.444458 909.659607,1213.676025 902.504028,1215.010498 
	C890.572266,1217.235718 878.652771,1219.526733 865.975708,1221.907837 
	C863.482056,1222.405884 861.740906,1222.786255 859.999756,1223.166626 
	C859.093750,1223.201782 858.187744,1223.236938 856.726562,1223.627441 
	C854.447815,1224.377197 852.724121,1224.771851 851.000488,1225.166504 
	C843.168091,1226.518677 835.015015,1226.926270 827.580688,1229.450684 
	C817.183289,1232.981323 806.176819,1232.715698 795.826965,1235.971069 
	C792.353271,1237.063721 788.787354,1237.863159 783.778992,1239.189819 
	C772.708923,1239.766113 760.214661,1242.087280 746.998047,1245.025146 
	C740.782227,1246.327759 735.369629,1247.607056 729.956970,1248.886230 
	C721.544067,1250.523560 713.131226,1252.160889 703.985718,1253.910889 
	C701.496094,1252.420288 699.290466,1251.089722 698.104492,1249.139160 
	C696.843872,1247.065796 696.549744,1244.404785 695.833618,1242.000366 
	C694.857727,1235.902954 694.019897,1229.779663 692.878906,1223.713379 
	C689.992798,1208.369141 687.000488,1193.044800 683.994812,1177.723389 
	C680.675354,1160.802490 677.235229,1143.905396 673.958435,1126.976318 
	C671.546692,1114.516479 669.426697,1101.999878 666.973633,1089.548462 
	C663.264709,1070.722534 659.399109,1051.927124 655.555115,1033.128052 
	C654.484802,1027.893799 652.799011,1022.729736 652.364197,1017.453613 
	C652.224915,1015.763306 654.894165,1012.724548 656.808716,1012.185059 
	C663.352234,1010.341614 670.127258,1009.313293 676.821777,1008.014282 
	C689.917297,1005.473145 703.018127,1002.959961 716.116577,1000.434021 
	C734.167969,996.953003 752.224426,993.498230 770.268799,989.981445 
	C789.905823,986.154297 809.522217,982.220764 829.165039,978.424133 
	C845.779358,975.212891 862.429138,972.185669 879.043701,968.975708 
	C893.414978,966.199158 907.748596,963.228149 922.117493,960.438843 
	C936.787598,957.591064 950.880615,958.838074 964.867859,964.786804 
	C975.966431,969.506958 984.754578,977.148865 993.811951,984.535645 
	C997.395325,987.458069 1000.086975,991.473877 1003.688599,995.346802 
	C1009.755920,1005.481140 1015.319275,1015.260376 1020.882690,1025.039673 
	C1021.259155,1026.447876 1021.635559,1027.856079 1022.137573,1029.995728 
	C1022.861389,1032.196289 1023.567566,1033.631592 1024.038818,1035.140381 
	C1025.789917,1040.747070 1027.463745,1046.377930 1029.166626,1051.999634 
z"/>
<path fill="#000000" opacity="1.000000" stroke="none" 
	d="
M586.799683,483.956543 
	C598.206848,481.617249 609.161743,479.218292 620.157227,477.022278 
	C645.350647,471.990631 670.544006,466.954590 695.775330,462.117981 
	C715.916321,458.257141 736.126465,454.758698 756.280396,450.963501 
	C768.426392,448.676270 780.534790,446.184540 792.639587,443.685150 
	C809.552124,440.193085 825.294006,442.187866 841.090210,450.102417 
	C854.734863,456.938934 864.878113,467.355072 874.243042,478.318329 
	C881.957214,487.348999 887.289307,498.564026 892.869141,509.233551 
	C901.526367,525.787720 903.543091,544.203918 905.876587,562.360535 
	C907.280884,573.287781 908.574646,584.482788 907.740417,595.390930 
	C906.032471,617.722900 900.518616,638.895691 885.158203,656.580017 
	C875.256714,667.979553 864.081116,677.437134 849.696045,681.735413 
	C838.065308,685.210754 825.821655,686.626343 813.858948,689.001343 
	C795.039246,692.737732 776.236145,696.557983 757.409058,700.256592 
	C742.245483,703.235474 727.050659,706.055054 711.880981,709.003357 
	C692.721130,712.727173 673.579712,716.546204 654.417175,720.255981 
	C639.084167,723.224304 623.730713,726.086121 608.389038,729.009827 
	C606.953613,729.283386 605.554077,729.795227 604.110535,729.967773 
	C599.091553,730.567627 596.813416,728.297974 595.857605,723.220520 
	C593.277710,709.514160 590.362854,695.871033 587.609253,682.197144 
	C583.725403,662.910278 579.816101,643.628357 576.010559,624.325989 
	C571.354431,600.709717 566.787903,577.075684 562.194580,553.447083 
	C558.471497,534.294922 554.637146,515.161926 551.277405,495.946014 
	C550.982361,494.258331 553.526367,490.680695 555.298035,490.255035 
	C565.563171,487.788544 575.992249,486.004181 586.799683,483.956543 
z"/>
<path fill="#FF7701" opacity="1.000000" stroke="none" 
	d="
M1021.197083,1024.896362 
	C1015.319275,1015.260376 1009.755920,1005.481140 1004.039673,995.372437 
	C1009.071411,996.639099 1013.682678,997.927979 1014.675964,1005.076172 
	C1015.373047,1010.091919 1019.457520,1014.581421 1021.635620,1019.480835 
	C1022.281128,1020.932861 1021.590088,1022.979126 1021.197083,1024.896362 
z"/>
<path fill="#FF7701" opacity="1.000000" stroke="none" 
	d="
M924.201416,1211.483521 
	C930.682617,1209.775635 937.364624,1208.384521 944.468140,1206.973633 
	C945.356445,1208.717773 945.823242,1210.481567 946.290039,1212.245361 
	C944.621155,1212.514648 942.957581,1212.966553 941.282288,1213.015503 
	C937.692139,1213.120361 934.088440,1213.149780 930.505127,1212.947266 
	C928.455750,1212.831421 926.435608,1212.199707 924.201416,1211.483521 
z"/>
<path fill="#FF7701" opacity="1.000000" stroke="none" 
	d="
M1029.461182,1051.833984 
	C1027.463745,1046.377930 1025.789917,1040.747070 1024.038818,1035.140381 
	C1023.567566,1033.631592 1022.861389,1032.196289 1022.214844,1030.363281 
	C1027.158691,1029.677246 1028.422974,1033.595459 1029.000122,1037.028809 
	C1029.804932,1041.815796 1029.554565,1046.780029 1029.461182,1051.833984 
z"/>
<path fill="#FF7701" opacity="1.000000" stroke="none" 
	d="
M695.509338,1242.107910 
	C696.549744,1244.404785 696.843872,1247.065796 698.104492,1249.139160 
	C699.290466,1251.089722 701.496094,1252.420288 703.626770,1254.095215 
	C702.521973,1258.249146 698.790466,1256.709839 695.946045,1257.361938 
	C695.704224,1257.417236 695.335083,1257.134521 695.091614,1256.929810 
	C693.622986,1255.694580 693.708435,1244.043945 695.509338,1242.107910 
z"/>
<path fill="#FF7701" opacity="1.000000" stroke="none" 
	d="
M1030.527832,1144.963135 
	C1031.512939,1139.129150 1032.859253,1133.257812 1034.542358,1127.175049 
	C1035.645630,1127.550659 1036.727905,1127.976440 1037.124390,1128.752441 
	C1038.935181,1132.296753 1034.681519,1143.110474 1030.527832,1144.963135 
z"/>
<path fill="#FF7701" opacity="1.000000" stroke="none" 
	d="
M730.183838,1249.183105 
	C735.369629,1247.607056 740.782227,1246.327759 746.597717,1245.107666 
	C746.805420,1248.411133 744.952820,1249.978149 741.833313,1249.938721 
	C738.024475,1249.890625 734.218140,1249.641846 730.183838,1249.183105 
z"/>
<path fill="#FF7701" opacity="1.000000" stroke="none" 
	d="
M997.228088,1190.093506 
	C999.350098,1187.710693 1001.811340,1185.467163 1004.576416,1183.093018 
	C1008.383423,1185.784546 1008.266968,1188.225830 1004.294006,1189.540405 
	C1002.204163,1190.231812 999.819031,1190.030884 997.228088,1190.093506 
z"/>
<path fill="#FF7601" opacity="1.000000" stroke="none" 
	d="
M1023.231079,1160.884766 
	C1024.675781,1157.070557 1026.466431,1153.183472 1028.568115,1149.129761 
	C1032.854492,1152.029419 1029.928345,1154.870117 1028.273804,1157.361694 
	C1027.264648,1158.881226 1025.178955,1159.685913 1023.231079,1160.884766 
z"/>
<path fill="#FF7701" opacity="1.000000" stroke="none" 
	d="
M1014.224792,1174.080322 
	C1016.077759,1170.984619 1018.199585,1168.081909 1020.637390,1165.034668 
	C1022.778381,1171.059570 1020.677612,1174.111084 1014.224792,1174.080322 
z"/>
<path fill="#FF7701" opacity="1.000000" stroke="none" 
	d="
M851.032471,1225.500732 
	C852.724121,1224.771851 854.447815,1224.377197 856.564636,1223.933838 
	C855.754456,1225.397949 854.551086,1226.911011 853.347656,1228.424072 
	C852.586609,1227.561035 851.825562,1226.698120 851.032471,1225.500732 
z"/>
<path fill="#FF7701" opacity="1.000000" stroke="none" 
	d="
M860.160583,1223.457275 
	C861.740906,1222.786255 863.482056,1222.405884 865.611816,1222.096313 
	C864.802429,1225.190796 862.932495,1225.800659 860.160583,1223.457275 
z"/>
<path fill="#FF7701" opacity="1.000000" stroke="none" 
	d="
M1246.717285,1457.818726 
	C1245.845337,1458.890503 1244.690552,1459.781128 1243.267944,1460.835815 
	C1243.179199,1458.892944 1243.071899,1456.493164 1246.717285,1457.818726 
z"/>
<path fill="#FF7701" opacity="1.000000" stroke="none" 
	d="
M1031.870850,1516.711426 
	C1030.933350,1517.000000 1029.866577,1517.000000 1028.399902,1517.000000 
	C1029.247192,1516.807617 1030.494385,1516.615234 1031.870850,1516.711426 
z"/>
<path fill="#FF7701" opacity="1.000000" stroke="none" 
	d="
M1241.719727,1461.103516 
	C1241.520142,1461.597656 1241.040283,1462.195312 1240.280273,1462.896484 
	C1240.479736,1462.402344 1240.959473,1461.804565 1241.719727,1461.103516 
z"/>
</svg>